[Header]
FileType HTR
DataType HTRS
FileVersion 1
NumSegments 64
NumFrames 4
DataFrameRate 30
EulerRotationOrder ZYX
CalibrationUnits mm
RotationUnits Degrees
GlobalAxisofGravity Y
BoneLengthAxis Y
ScaleFactor 1.0
[SegmentNames&Hierarchy]
Hips	GLOBAL
Spine	Hips
Spine1	Spine
Spine2	Spine1
Neck	Spine2
Head	Neck
LeftEye	Head
RightEye	Head
LeftShoulder	Spine2
LeftArm	LeftShoulder
LeftForeArm	LeftArm
LeftHand	LeftForeArm
LeftHandThumb1	LeftHand
LeftHandThumb2	LeftHandThumb1
LeftHandThumb3	LeftHandThumb2
LeftHandThumb4	LeftHandThumb3
LeftHandIndex1	LeftHand
LeftHandIndex2	LeftHandIndex1
LeftHandIndex3	LeftHandIndex2
LeftHandIndex4	LeftHandIndex3
LeftHandMiddle1	LeftHand
LeftHandMiddle2	LeftHandMiddle1
LeftHandMiddle3	LeftHandMiddle2
LeftHandMiddle4	LeftHandMiddle3
LeftHandRing1	LeftHand
LeftHandRing2	LeftHandRing1
LeftHandRing3	LeftHandRing2
LeftHandRing4	LeftHandRing3
LeftHandPinky1	LeftHand
LeftHandPinky2	LeftHandPinky1
LeftHandPinky3	LeftHandPinky2
LeftHandPinky4	LeftHandPinky3
RightShoulder	Spine2
RightArm	RightShoulder
RightForeArm	RightArm
RightHand	RightForeArm
RightHandPinky1	RightHand
RightHandPinky2	RightHandPinky1
RightHandPinky3	RightHandPinky2
RightHandPinky4	RightHandPinky3
RightHandRing1	RightHand
RightHandRing2	RightHandRing1
RightHandRing3	RightHandRing2
RightHandRing4	RightHandRing3
RightHandMiddle1	RightHand
RightHandMiddle2	RightHandMiddle1
RightHandMiddle3	RightHandMiddle2
RightHandMiddle4	RightHandMiddle3
RightHandIndex1	RightHand
RightHandIndex2	RightHandIndex1
RightHandIndex3	RightHandIndex2
RightHandIndex4	RightHandIndex3
RightHandThumb1	RightHand
RightHandThumb2	RightHandThumb1
RightHandThumb3	RightHandThumb2
RightHandThumb4	RightHandThumb3
LeftUpLeg	Hips
LeftLeg	LeftUpLeg
LeftFoot	LeftLeg
LeftToeBase	LeftFoot
RightUpLeg	Hips
RightLeg	RightUpLeg
RightFoot	RightLeg
RightToeBase	RightFoot
[BasePosition]
Hips	0	0	0	0	0	0	1
Spine	0	0	0	0	0	0	1
Spine1	0	0	0	0	0	0	1
Spine2	0	0	0	0	0	0	1
Neck	0	0	0	0	0	0	1
Head	0	0	0	0	0	0	1
LeftEye	0	0	0	0	0	0	1
RightEye	0	0	0	0	0	0	1
LeftShoulder	0	0	0	0	0	0	1
LeftArm	0	0	0	0	0	0	1
LeftForeArm	0	0	0	0	0	0	1
LeftHand	0	0	0	0	0	0	1
LeftHandThumb1	0	0	0	0	0	0	1
LeftHandThumb2	0	0	0	0	0	0	1
LeftHandThumb3	0	0	0	0	0	0	1
LeftHandThumb4	0	0	0	0	0	0	1
LeftHandIndex1	0	0	0	0	0	0	1
LeftHandIndex2	0	0	0	0	0	0	1
LeftHandIndex3	0	0	0	0	0	0	1
LeftHandIndex4	0	0	0	0	0	0	1
LeftHandMiddle1	0	0	0	0	0	0	1
LeftHandMiddle2	0	0	0	0	0	0	1
LeftHandMiddle3	0	0	0	0	0	0	1
LeftHandMiddle4	0	0	0	0	0	0	1
LeftHandRing1	0	0	0	0	0	0	1
LeftHandRing2	0	0	0	0	0	0	1
LeftHandRing3	0	0	0	0	0	0	1
LeftHandRing4	0	0	0	0	0	0	1
LeftHandPinky1	0	0	0	0	0	0	1
LeftHandPinky2	0	0	0	0	0	0	1
LeftHandPinky3	0	0	0	0	0	0	1
LeftHandPinky4	0	0	0	0	0	0	1
RightShoulder	0	0	0	0	0	0	1
RightArm	0	0	0	0	0	0	1
RightForeArm	0	0	0	0	0	0	1
RightHand	0	0	0	0	0	0	1
RightHandPinky1	0	0	0	0	0	0	1
RightHandPinky2	0	0	0	0	0	0	1
RightHandPinky3	0	0	0	0	0	0	1
RightHandPinky4	0	0	0	0	0	0	1
RightHandRing1	0	0	0	0	0	0	1
RightHandRing2	0	0	0	0	0	0	1
RightHandRing3	0	0	0	0	0	0	1
RightHandRing4	0	0	0	0	0	0	1
RightHandMiddle1	0	0	0	0	0	0	1
RightHandMiddle2	0	0	0	0	0	0	1
RightHandMiddle3	0	0	0	0	0	0	1
RightHandMiddle4	0	0	0	0	0	0	1
RightHandIndex1	0	0	0	0	0	0	1
RightHandIndex2	0	0	0	0	0	0	1
RightHandIndex3	0	0	0	0	0	0	1
RightHandIndex4	0	0	0	0	0	0	1
RightHandThumb1	0	0	0	0	0	0	1
RightHandThumb2	0	0	0	0	0	0	1
RightHandThumb3	0	0	0	0	0	0	1
RightHandThumb4	0	0	0	0	0	0	1
LeftUpLeg	0	0	0	0	0	0	1
LeftLeg	0	0	0	0	0	0	1
LeftFoot	0	0	0	0	0	0	1
LeftToeBase	0	0	0	0	0	0	1
RightUpLeg	0	0	0	0	0	0	1
RightLeg	0	0	0	0	0	0	1
RightFoot	0	0	0	0	0	0	1
RightToeBase	0	0	0	0	0	0	1
[Hips]
30	-13.75012398	1011.708374	5.602183342	5.22537899	-2.067354441	-8.800222397	1.0
31	-14.24729824	1012.271851	6.122293472	4.971528053	-2.072503805	-8.669347763	1.0
32	-14.616745	1012.980652	6.741347313	4.655151367	-2.120598555	-8.490298271	1.0
33	-14.79563522	1013.823181	7.511341572	4.246172905	-2.228428602	-8.243725777	1.0
[Spine]
30	0	101.8159943	1.315000057	4.907962799	1.6432271	1.874390244	1.0
31	0	101.8159943	1.315000057	4.862956524	1.655684352	1.889026403	1.0
32	0	101.8159943	1.315000057	4.804305553	1.662255168	1.911205649	1.0
33	0	101.8159943	1.315000057	4.729142189	1.665192008	1.943632007	1.0
[Spine1]
30	0	100.8349991	-10.00800037	2.770509481	0.6121364832	0.2362833321	1.0
31	0	100.8349991	-10.00800037	2.719526768	0.6348463297	0.2641364932	1.0
32	0	100.8349991	-10.00800037	2.654074192	0.6505193114	0.3018901944	1.0
33	0	100.8349991	-10.00800037	2.569920063	0.6640138626	0.3520966172	1.0
[Spine2]
30	0	91	-13.73399925	2.750322104	0.6568925977	0.2491166443	1.0
31	0	91	-13.73399925	2.699214697	0.6792325377	0.2768385112	1.0
32	0	91	-13.73399925	2.633641005	0.6941937804	0.3144705296	1.0
33	0	91	-13.73399925	2.549335003	0.7063638568	0.3646049201	1.0
[Neck]
30	0	166.7169952	-25.16200066	6.170125008	1.075558782	-3.256946564	1.0
31	0	166.7169952	-25.16200066	6.205821037	1.040698528	-3.017039776	1.0
32	0	166.7169952	-25.16200066	6.272219658	0.9993764758	-2.804829121	1.0
33	0	166.7169952	-25.16200066	6.371692181	0.9556216002	-2.645108461	1.0
[Head]
30	0	96.17900085	16.84999847	-21.70806503	5.416619778	0.01894317009	1.0
31	0	96.17900085	16.84999847	-21.06939507	5.039725304	0.05872379616	1.0
32	0	96.17900085	16.84999847	-20.31923294	4.668012142	-0.01556043047	1.0
33	0	96.17900085	16.84999847	-19.46099472	4.310621738	-0.2482909858	1.0
[LeftEye]
30	30.6760006	64.09500122	92.83599854	0	0	0	1.0
31	30.6760006	64.09500122	92.83599854	0	0	0	1.0
32	30.6760006	64.09500122	92.83599854	0	0	0	1.0
33	30.6760006	64.09500122	92.83599854	0	0	0	1.0
[RightEye]
30	-30.6760006	64.09500122	92.83499908	0	0	0	1.0
31	-30.6760006	64.09500122	92.83499908	0	0	0	1.0
32	-30.6760006	64.09500122	92.83499908	0	0	0	1.0
33	-30.6760006	64.09500122	92.83499908	0	0	0	1.0
[LeftShoulder]
30	45.70400238	109.4599991	-26.28000069	5.484859943	-17.13249779	-16.11447144	1.0
31	45.70400238	109.4599991	-26.28000069	5.438933372	-16.97805214	-16.09279633	1.0
32	45.70400238	109.4599991	-26.28000069	5.397404194	-16.84757805	-16.05753899	1.0
33	45.70400238	109.4599991	-26.28000069	5.364049435	-16.75941467	-16.00207329	1.0
[LeftArm]
30	105.923996	-5.24600029	-22.32099915	18.06336594	-11.13246536	-60.93780899	1.0
31	105.923996	-5.24600029	-22.32099915	17.60308075	-10.73242378	-61.18523026	1.0
32	105.923996	-5.24600029	-22.32099915	17.12190247	-10.27804756	-61.38341141	1.0
33	105.923996	-5.24600029	-22.32099915	16.59235573	-9.74701786	-61.46944809	1.0
[LeftForeArm]
30	278.414978	-0.0009999999311	0	1.943990355e-07	-3.07397294	-0.0002229095116	1.0
31	278.414978	-0.0009999999311	0	-1.392487775e-06	-2.711376667	-0.000208430356	1.0
32	278.414978	-0.0009999999311	0	-2.067394234e-06	-2.332059622	-0.0001981701935	1.0
33	278.414978	-0.0009999999311	0	-1.100992904e-06	-1.898377419	-0.0002007967123	1.0
[LeftHand]
30	283.2879944	0	0	-33.3918457	0.6687332392	5.497745514	1.0
31	283.2879944	0	0	-33.69898224	0.1159102768	5.463282108	1.0
32	283.2879944	0	0	-33.76723099	-0.3939819634	5.129264355	1.0
33	283.2879944	0	0	-33.50225449	-0.8562329412	4.303103924	1.0
[LeftHandThumb1]
30	24.6609993	-15.75	26.8239994	-5.434468269	1.983062267	7.923299313	1.0
31	24.6609993	-15.75	26.8239994	-4.914384842	2.145948648	7.655200958	1.0
32	24.6609993	-15.75	26.8239994	-4.299042702	2.253714561	7.264385223	1.0
33	24.6609993	-15.75	26.8239994	-3.60284853	2.306519032	6.754324913	1.0
[LeftHandThumb2]
30	32.29800034	-18.64699936	18.64699936	19.71345139	19.65899086	17.64083481	1.0
31	32.29800034	-18.64699936	18.64699936	19.73699951	19.29198074	17.87603569	1.0
32	32.29800034	-18.64699936	18.64699936	19.7634964	18.91512489	18.11848831	1.0
33	32.29800034	-18.64699936	18.64699936	19.79467773	18.54678154	18.33411217	1.0
[LeftHandThumb3]
30	26.52600098	-15.31499958	15.31499958	-12.44340801	3.916913509	9.933211327	1.0
31	26.52600098	-15.31499958	15.31499958	-12.58487892	4.107955456	10.01820374	1.0
32	26.52600098	-15.31499958	15.31499958	-12.71134758	4.284563065	10.0746994	1.0
33	26.52600098	-15.31499958	15.31499958	-12.81158161	4.427334309	10.09809113	1.0
[LeftHandThumb4]
30	19.54599953	-11.28499985	11.28499985	0	0	0	1.0
31	19.54599953	-11.28499985	11.28499985	0	0	0	1.0
32	19.54599953	-11.28499985	11.28499985	0	0	0	1.0
33	19.54599953	-11.28499985	11.28499985	0	0	0	1.0
[LeftHandIndex1]
30	91.09299469	-5.170999527	22.60099792	0.1832886487	-0.6034553647	-10.77277088	1.0
31	91.09299469	-5.170999527	22.60099792	0.2874545455	-0.6039527655	-10.52851486	1.0
32	91.09299469	-5.170999527	22.60099792	0.3667179942	-0.602996707	-10.35315323	1.0
33	91.09299469	-5.170999527	22.60099792	0.4112543464	-0.6018142104	-10.26065445	1.0
[LeftHandIndex2]
30	36.76399994	0	0	-0.2573411763	1.714983344	-17.06640244	1.0
31	36.76399994	0	0	-0.2583727837	1.718339801	-17.10082817	1.0
32	36.76399994	0	0	-0.2593607605	1.721545935	-17.13372612	1.0
33	36.76399994	0	0	-0.2602648437	1.724469304	-17.16374779	1.0
[LeftHandIndex3]
30	28.83100128	0	0	-0.05309189856	0.7860233188	-7.728409767	1.0
31	28.83100128	0	0	-0.05356118083	0.7894729376	-7.762556076	1.0
32	28.83100128	0	0	-0.05401229858	0.7927739024	-7.795233727	1.0
33	28.83100128	0	0	-0.05442824587	0.7957936525	-7.825116634	1.0
[LeftHandIndex4]
30	23.92700005	0	0	0	0	0	1.0
31	23.92700005	0	0	0	0	0	1.0
32	23.92700005	0	0	0	0	0	1.0
33	23.92700005	0	0	0	0	0	1.0
[LeftHandMiddle1]
30	95.33399963	0	0	-1.130298257	2.910117149	-20.44756317	1.0
31	95.33399963	0	0	-1.114259124	2.867220879	-20.2321434	1.0
32	95.33399963	0	0	-1.098117113	2.834369183	-20.0148468	1.0
33	95.33399963	0	0	-1.091478825	2.828517199	-19.92572975	1.0
[LeftHandMiddle2]
30	36.98199844	0	0	-0.2412908077	1.661828637	-16.52170563	1.0
31	36.98199844	0	0	-0.2414657772	1.662438035	-16.52792358	1.0
32	36.98199844	0	0	-0.2422513962	1.665063381	-16.55480003	1.0
33	36.98199844	0	0	-0.2443466038	1.672029734	-16.62616539	1.0
[LeftHandMiddle3]
30	29.50900078	0	0	-0.2713928819	1.760083437	-17.52983856	1.0
31	29.50900078	0	0	-0.2715882957	1.760720372	-17.53636932	1.0
32	29.50900078	0	0	-0.2724253833	1.763350487	-17.56344795	1.0
33	29.50900078	0	0	-0.2746423483	1.770278096	-17.63480568	1.0
[LeftHandMiddle4]
30	28.3390007	0	0	0	0	0	1.0
31	28.3390007	0	0	0	0	0	1.0
32	28.3390007	0	0	0	0	0	1.0
33	28.3390007	0	0	0	0	0	1.0
[LeftHandRing1]
30	91.04499817	-0.4390000105	-18.65100098	-1.566521287	3.713595867	-26.00836372	1.0
31	91.04499817	-0.4390000105	-18.65100098	-1.574452639	3.720862865	-26.10490799	1.0
32	91.04499817	-0.4390000105	-18.65100098	-1.579424858	3.72712326	-26.16537857	1.0
33	91.04499817	-0.4390000105	-18.65100098	-1.581491947	3.732677698	-26.19066811	1.0
[LeftHandRing2]
30	31.54000092	0	0	-0.5895578861	2.557193756	-25.96131516	1.0
31	31.54000092	0	0	-0.5881245136	2.554281473	-25.92945099	1.0
32	31.54000092	0	0	-0.5852180719	2.548270702	-25.86390305	1.0
33	31.54000092	0	0	-0.580766499	2.539109945	-25.76389503	1.0
[LeftHandRing3]
30	29.37700081	0	0	-0.4616810977	2.276133299	-22.92934799	1.0
31	29.37700081	0	0	-0.4603838623	2.273098946	-22.89696503	1.0
32	29.37700081	0	0	-0.4577675164	2.266862631	-22.8305912	1.0
33	29.37700081	0	0	-0.4537619054	2.257369757	-22.72946167	1.0
[LeftHandRing4]
30	26.47500038	0	0	0	0	0	1.0
31	26.47500038	0	0	0	0	0	1.0
32	26.47500038	0	0	0	0	0	1.0
33	26.47500038	0	0	0	0	0	1.0
[LeftHandPinky1]
30	80.77799988	-4.887000084	-38.06099701	-3.931114674	4.727284431	-38.49027252	1.0
31	80.77799988	-4.887000084	-38.06099701	-3.696184874	4.88011837	-37.81946945	1.0
32	80.77799988	-4.887000084	-38.06099701	-3.473154306	4.992599487	-36.98403168	1.0
33	80.77799988	-4.887000084	-38.06099701	-3.265080929	5.052587986	-35.93102264	1.0
[LeftHandPinky2]
30	36	0	0	-0.4332652688	2.207804203	-22.20293427	1.0
31	36	0	0	-0.4168974757	2.167543173	-21.77639389	1.0
32	36	0	0	-0.4000050128	2.124550581	-21.3230114	1.0
33	36	0	0	-0.382488519	2.077625036	-20.83141518	1.0
[LeftHandPinky3]
30	21.14200211	0	0	-0.3992410302	2.122596025	-21.30243874	1.0
31	21.14200211	0	0	-0.3835096657	2.082083464	-20.87594604	1.0
32	21.14200211	0	0	-0.3672968745	2.038832188	-20.42261124	1.0
33	21.14200211	0	0	-0.3505200744	1.9916327	-19.93101692	1.0
[LeftHandPinky4]
30	19.75699997	0	0	0	0	0	1.0
31	19.75699997	0	0	0	0	0	1.0
32	19.75699997	0	0	0	0	0	1.0
33	19.75699997	0	0	0	0	0	1.0
[RightShoulder]
30	-45.70000076	109.4620056	-26.28000069	6.041325569	18.97443581	13.03181362	1.0
31	-45.70000076	109.4620056	-26.28000069	6.042509079	19.00915337	12.97953224	1.0
32	-45.70000076	109.4620056	-26.28000069	6.028672218	18.96401787	12.96277237	1.0
33	-45.70000076	109.4620056	-26.28000069	6.009290695	18.87177658	12.98430538	1.0
[RightArm]
30	-105.9280014	-5.248000145	-22.32099915	28.78101349	9.051391602	62.57964325	1.0
31	-105.9280014	-5.248000145	-22.32099915	28.35288048	8.257541656	62.14910889	1.0
32	-105.9280014	-5.248000145	-22.32099915	28.27641296	7.600913525	61.69992828	1.0
33	-105.9280014	-5.248000145	-22.32099915	28.77355957	7.126652718	61.10945129	1.0
[RightForeArm]
30	-278.414978	0	0	-3.533029712e-06	10.73194599	-7.598871576e-08	1.0
31	-278.414978	0	0	-1.151983633e-05	10.25186539	-1.181198604e-05	1.0
32	-278.414978	0	0	-1.615444125e-05	9.916690826	-1.637561036e-05	1.0
33	-278.414978	0	0	-1.506425906e-05	9.806438446	-1.448064813e-05	1.0
[RightHand]
30	-283.2879944	0	0.0009999999311	-22.45929718	3.848937273	2.329404354	1.0
31	-283.2879944	0	0.0009999999311	-22.82216454	3.722733498	2.387104988	1.0
32	-283.2879944	0	0.0009999999311	-22.98652458	3.579373121	2.429730892	1.0
33	-283.2879944	0	0.0009999999311	-22.85176277	3.301076889	2.687323809	1.0
[RightHandPinky1]
30	-80.76699829	-4.885000229	-38.06000137	-2.483555794	-4.686439037	38.36476135	1.0
31	-80.76699829	-4.885000229	-38.06000137	-2.419262409	-4.70956707	37.64371872	1.0
32	-80.76699829	-4.885000229	-38.06000137	-2.35964489	-4.72992897	36.96766663	1.0
33	-80.76699829	-4.885000229	-38.06000137	-2.293275118	-4.731044769	36.18091965	1.0
[RightHandPinky2]
30	-36	0	0.0009999999311	-0.253934592	-1.51382041	19.0632267	1.0
31	-36	0	0.0009999999311	-0.2491722703	-1.499951243	18.88205719	1.0
32	-36	0	0.0009999999311	-0.2453202307	-1.48865366	18.73458481	1.0
33	-36	0	0.0009999999311	-0.2425650805	-1.480476975	18.62798882	1.0
[RightHandPinky3]
30	-21.14200211	0	0	-0.2300570905	-1.442835927	18.11816025	1.0
31	-21.14200211	0	0	-0.2256306708	-1.429221153	17.94134331	1.0
32	-21.14200211	0	0	-0.2220624089	-1.418163538	17.79785156	1.0
33	-21.14200211	0	0	-0.2195066512	-1.410157204	17.69401932	1.0
[RightHandPinky4]
30	-19.75699997	0	0	0	0	0	1.0
31	-19.75699997	0	0	0	0	0	1.0
32	-19.75699997	0	0	0	0	0	1.0
33	-19.75699997	0	0	0	0	0	1.0
[RightHandRing1]
30	-91.03599548	-0.4390000105	-18.65100098	-1.871551633	-2.595215797	32.02245331	1.0
31	-91.03599548	-0.4390000105	-18.65100098	-1.819206238	-2.630439043	31.33945847	1.0
32	-91.03599548	-0.4390000105	-18.65100098	-1.774819136	-2.633930206	30.75567245	1.0
33	-91.03599548	-0.4390000105	-18.65100098	-1.734111786	-2.551655054	30.21583176	1.0
[RightHandRing2]
30	-31.54000092	0	0	-0.6146496534	-2.307214975	29.83120537	1.0
31	-31.54000092	0	0	-0.5887846947	-2.26138401	29.18052292	1.0
32	-31.54000092	0	0	-0.5707625747	-2.229007721	28.72240067	1.0
33	-31.54000092	0	0	-0.5641380548	-2.217609644	28.5595932	1.0
[RightHandRing3]
30	-29.37700081	0	0	-0.4970659912	-2.088986158	26.76617813	1.0
31	-29.37700081	0	0	-0.4737281799	-2.041895866	26.11657333	1.0
32	-29.37700081	0	0	-0.457482338	-2.008628845	25.65899849	1.0
33	-29.37700081	0	0	-0.4514575005	-1.996853232	25.49562454	1.0
[RightHandRing4]
30	-26.47500038	0	0	0	0	0	1.0
31	-26.47500038	0	0	0	0	0	1.0
32	-26.47500038	0	0	0	0	0	1.0
33	-26.47500038	0	0	0	0	0	1.0
[RightHandMiddle1]
30	-95.32500458	0	0	-1.20460701	-3.756842375	22.846241	1.0
31	-95.32500458	0	0	-1.183873773	-3.667363644	22.54384422	1.0
32	-95.32500458	0	0	-1.160813332	-3.587509394	22.20303345	1.0
33	-95.32500458	0	0	-1.127586365	-3.501049042	21.7047596	1.0
[RightHandMiddle2]
30	-36.98199844	0	0	-0.2469290793	-1.493383884	18.77675438	1.0
31	-36.98199844	0	0	-0.2464927435	-1.492104769	18.75996399	1.0
32	-36.98199844	0	0	-0.2465118915	-1.492160439	18.7605896	1.0
33	-36.98199844	0	0	-0.2469300628	-1.493391871	18.77664948	1.0
[RightHandMiddle3]
30	-29.50900078	0	0	-0.2739396989	-1.572578788	19.78680229	1.0
31	-29.50900078	0	0	-0.2734722495	-1.57128489	19.76979256	1.0
32	-29.50900078	0	0	-0.2734836936	-1.571323156	19.77026749	1.0
33	-29.50900078	0	0	-0.2739195228	-1.572537184	19.78619003	1.0
[RightHandMiddle4]
30	-28.3390007	0	0.0009999999311	0	0	0	1.0
31	-28.3390007	0	0.0009999999311	0	0	0	1.0
32	-28.3390007	0	0.0009999999311	0	0	0	1.0
33	-28.3390007	0	0.0009999999311	0	0	0	1.0
[RightHandIndex1]
30	-91.08300018	-5.167999744	22.60099792	0.4840990901	-1.531256437	10.38842106	1.0
31	-91.08300018	-5.167999744	22.60099792	0.4684119225	-1.408034682	10.2780838	1.0
32	-91.08300018	-5.167999744	22.60099792	0.4618353844	-1.291636944	10.05653	1.0
33	-91.08300018	-5.167999744	22.60099792	0.4728538394	-1.155176759	9.527124405	1.0
[RightHandIndex2]
30	-36.76399994	0	0	-0.1819975227	-1.286762118	16.10079765	1.0
31	-36.76399994	0	0	-0.1824748814	-1.28839159	16.12176132	1.0
32	-36.76399994	0	0	-0.1827206761	-1.289218307	16.13240242	1.0
33	-36.76399994	0	0	-0.1825533062	-1.288650513	16.12510109	1.0
[RightHandIndex3]
30	-28.83100128	0	0	-0.03214309737	-0.5452154875	6.747245789	1.0
31	-28.83100128	0	0	-0.03234305978	-0.5469011068	6.76819849	1.0
32	-28.83100128	0	0	-0.03244330361	-0.5477552414	6.77883482	1.0
33	-28.83100128	0	0	-0.03236954287	-0.5471672416	6.771538258	1.0
[RightHandIndex4]
30	-23.92700005	0	0	0	0	0	1.0
31	-23.92700005	0	0	0	0	0	1.0
32	-23.92700005	0	0	0	0	0	1.0
33	-23.92700005	0	0	0	0	0	1.0
[RightHandThumb1]
30	-24.64799881	-15.72700024	26.82600021	-2.009768963	-0.4679071009	2.381981373	1.0
31	-24.64799881	-15.72700024	26.82600021	-1.970651865	-0.6301553845	2.49587059	1.0
32	-24.64799881	-15.72700024	26.82600021	-1.948369265	-0.6787300706	2.363690853	1.0
33	-24.64799881	-15.72700024	26.82600021	-1.948879123	-0.5272686481	1.690412998	1.0
[RightHandThumb2]
30	-32.29800034	-18.64699936	18.64699936	22.2780838	-23.91686058	-24.2938652	1.0
31	-32.29800034	-18.64699936	18.64699936	22.18876648	-23.84366989	-24.24944496	1.0
32	-32.29800034	-18.64699936	18.64699936	22.04550552	-23.72366524	-24.1797123	1.0
33	-32.29800034	-18.64699936	18.64699936	21.73237801	-23.45883369	-24.02857208	1.0
[RightHandThumb3]
30	-26.52600098	-15.31399918	15.31399918	-15.1378336	-5.713069916	-11.15888214	1.0
31	-26.52600098	-15.31399918	15.31399918	-15.12007046	-5.766904831	-11.1660223	1.0
32	-26.52600098	-15.31399918	15.31399918	-15.09375286	-5.828993797	-11.17570686	1.0
33	-26.52600098	-15.31399918	15.31399918	-15.03820896	-5.936990261	-11.19489002	1.0
[RightHandThumb4]
30	-19.54599953	-11.28499985	11.28499985	0	0	0	1.0
31	-19.54599953	-11.28499985	11.28499985	0	0	0	1.0
32	-19.54599953	-11.28499985	11.28499985	0	0	0	1.0
33	-19.54599953	-11.28499985	11.28499985	0	0	0	1.0
[LeftUpLeg]
30	82.07800293	-67.51699829	-15.99599934	-27.18153	18.08982849	11.28822899	1.0
31	82.07800293	-67.51699829	-15.99599934	-26.74264336	18.08710289	11.26531124	1.0
32	82.07800293	-67.51699829	-15.99599934	-26.14802933	18.0496521	11.21061325	1.0
33	82.07800293	-67.51699829	-15.99599934	-25.3304882	17.94862366	11.11089897	1.0
[LeftLeg]
30	0	-443.7049866	2.845999956	27.28555489	-3.052875519	2.907469273	1.0
31	0	-443.7049866	2.845999956	27.03072739	-3.084034443	2.893897533	1.0
32	0	-443.7049866	2.845999956	26.66055489	-3.056337833	2.918404579	1.0
33	0	-443.7049866	2.845999956	26.1433239	-2.946155071	3.012131214	1.0
[LeftFoot]
30	0	-444.2789917	-29.8219986	-1.768725038	0.3843365312	-7.723692894	1.0
31	0	-444.2789917	-29.8219986	-1.654006243	0.3929786086	-7.769809246	1.0
32	0	-444.2789917	-29.8219986	-1.562439919	0.4007261395	-7.812371731	1.0
33	0	-444.2789917	-29.8219986	-1.554279685	0.4020223022	-7.855367661	1.0
[LeftToeBase]
30	0	-87.28699493	107.1060028	-4.226923466	-1.429154253e-07	-3.04050991e-06	1.0
31	0	-87.28699493	107.1060028	-4.233258724	-4.163433687e-07	-2.768660124e-06	1.0
32	0	-87.28699493	107.1060028	-4.239731789	-8.677799315e-07	-2.099743824e-06	1.0
33	0	-87.28699493	107.1060028	-4.245224476	-2.100663778e-06	-1.47427329e-06	1.0
[RightUpLeg]
30	-82.07800293	-67.51699829	-15.99599934	-15.33362865	-7.026581764	12.34647274	1.0
31	-82.07800293	-67.51699829	-15.99599934	-14.94573593	-7.167612553	12.17112541	1.0
32	-82.07800293	-67.51699829	-15.99599934	-14.45323086	-7.33708477	11.92062378	1.0
33	-82.07800293	-67.51699829	-15.99599934	-13.82799911	-7.546365261	11.57081509	1.0
[RightLeg]
30	0	-443.7049866	2.861999989	19.39510536	-8.187624931	-7.256864548	1.0
31	0	-443.7049866	2.861999989	19.21957397	-8.224691391	-7.179715633	1.0
32	0	-443.7049866	2.861999989	18.98571205	-8.268831253	-7.087787628	1.0
33	0	-443.7049866	2.861999989	18.71347237	-8.315587044	-6.987953663	1.0
[RightFoot]
30	0	-444.2770081	-29.83799934	-7.815575123	-6.843236923	3.667738676	1.0
31	0	-444.2770081	-29.83799934	-7.765460014	-6.757123947	3.692397833	1.0
32	0	-444.2770081	-29.83799934	-7.715159416	-6.609501362	3.698233128	1.0
33	0	-444.2770081	-29.83799934	-7.699818134	-6.386559486	3.668161869	1.0
[RightToeBase]
30	0	-87.28699493	107.1060028	-6.991117001	6.201785254e-06	1.229572831e-06	1.0
31	0	-87.28699493	107.1060028	-6.99374342	-4.231884759e-06	-3.677479299e-08	1.0
32	0	-87.28699493	107.1060028	-6.994014263	-1.23048012e-05	-1.484194627e-06	1.0
33	0	-87.28699493	107.1060028	-6.987946987	-9.694221262e-06	-1.909000275e-06	1.0
[EndOfFile]
